<?xml version="1.0" encoding="utf-8"?>
<!-- Generator: Adobe Illustrator 15.0.0, SVG Export Plug-In . SVG Version: 6.00 Build 0)  -->
<!DOCTYPE svg PUBLIC "-//W3C//DTD SVG 1.1//EN" "http://www.w3.org/Graphics/SVG/1.1/DTD/svg11.dtd">
<svg version="1.1" id="Layer_1" xmlns="http://www.w3.org/2000/svg" xmlns:xlink="http://www.w3.org/1999/xlink" x="0px" y="0px"
	 width="26px" height="26px" viewBox="0 0 26 26" enable-background="new 0 0 26 26" xml:space="preserve">
<g>
	<g>
		<path fill="#B9B8BD" d="M21.963,0H2.439C1.092,0,0,1.093,0,2.439v19.524c0,1.346,1.092,2.439,2.439,2.439h10.547V13.99h-2.078
			v-3.003h2.078v-0.941V9.123V8.968c0-0.888,0.023-2.261,0.668-3.109c0.682-0.901,1.615-1.514,3.223-1.514
			c2.619,0,3.723,0.374,3.723,0.374l-0.52,3.077c0,0-0.865-0.25-1.674-0.25c-0.807,0-1.529,0.288-1.529,1.095v0.327v1.078v0.941
			h3.311l-0.23,3.003h-3.08v10.413h5.086c1.346,0,2.439-1.093,2.439-2.439V2.439C24.402,1.093,23.309,0,21.963,0z"/>
	</g>
</g>
</svg>
