<?xml version="1.0" encoding="utf-8"?>
<!-- Generator: Adobe Illustrator 15.0.0, SVG Export Plug-In . SVG Version: 6.00 Build 0)  -->
<!DOCTYPE svg PUBLIC "-//W3C//DTD SVG 1.1//EN" "http://www.w3.org/Graphics/SVG/1.1/DTD/svg11.dtd">
<svg version="1.1" id="Layer_1" xmlns="http://www.w3.org/2000/svg" xmlns:xlink="http://www.w3.org/1999/xlink" x="0px" y="0px"
	 width="108.5px" height="136.5px" viewBox="0 0 108.5 136.5" enable-background="new 0 0 108.5 136.5" xml:space="preserve">
<g>
	<path opacity="0.4" d="M3.39,49.447c0,0-3.028,0.835-3.028,4.791c0,11.516-0.21,58.16-0.361,75.992
		c-0.032,3.933,1.988,5.843,5.498,5.099c17.749-3.753,71.393-11.552,91.086-14.221c5.016-0.68,4.966-5.725,4.966-5.725l5.282-89.913
		L3.39,49.447z"/>
	<g>
		<linearGradient id="SVGID_1_" gradientUnits="userSpaceOnUse" x1="40.2695" y1="73.8618" x2="106.833" y2="73.8618">
			<stop  offset="0" style="stop-color:#A42714"/>
			<stop  offset="0.2339" style="stop-color:#BE371A"/>
			<stop  offset="0.5295" style="stop-color:#D8471F"/>
			<stop  offset="0.7942" style="stop-color:#E85123"/>
			<stop  offset="1" style="stop-color:#EE5424"/>
		</linearGradient>
		<path fill="url(#SVGID_1_)" d="M102.271,21.927L44.833,60.219c-2.509,1.671-4.564,5.508-4.564,8.524v57.835l54.757-11.07
			l7.244-4.83c2.51-1.674,4.562-5.51,4.562-8.523V24.37C106.833,21.354,104.78,20.256,102.271,21.927z"/>
	</g>
	<g>
		<polygon fill="#FFFFFF" points="66.896,5.269 100.175,26.378 102.365,106.395 94.323,113.031 4.94,133.694 3.479,133.895 
			1.325,133.332 1.695,129.505 62.96,83.072 		"/>
	</g>
	<path fill="#231F20" d="M0.331,130.869"/>
	<g>
		<linearGradient id="SVGID_2_" gradientUnits="userSpaceOnUse" x1="22.4619" y1="64.3066" x2="44.7666" y2="64.3066">
			<stop  offset="0" style="stop-color:#AC2914"/>
			<stop  offset="0.1145" style="stop-color:#C13719"/>
			<stop  offset="0.2652" style="stop-color:#D5441E"/>
			<stop  offset="0.4372" style="stop-color:#E34D21"/>
			<stop  offset="0.6467" style="stop-color:#EB5223"/>
			<stop  offset="1" style="stop-color:#EE5424"/>
		</linearGradient>
		<polygon fill="url(#SVGID_2_)" points="22.462,56.939 22.462,86.674 44.767,71.676 33.613,64.306 44.767,41.939 		"/>
		<linearGradient id="SVGID_3_" gradientUnits="userSpaceOnUse" x1="0.3179" y1="66.9619" x2="66.8955" y2="66.9619">
			<stop  offset="0" style="stop-color:#AC2914"/>
			<stop  offset="0.1145" style="stop-color:#C13719"/>
			<stop  offset="0.2652" style="stop-color:#D5441E"/>
			<stop  offset="0.4372" style="stop-color:#E34D21"/>
			<stop  offset="0.6467" style="stop-color:#EB5223"/>
			<stop  offset="1" style="stop-color:#EE5424"/>
		</linearGradient>
		<path fill="url(#SVGID_3_)" d="M62.333,0.788L4.895,39.077c-2.51,1.673-4.564,5.51-4.564,8.525v83.267
			c-0.007,0.009-0.007,0.012,0,0.009c-0.011,0.097-0.425,3.985,4.555,2.826c-0.416,0.076-3.257,0.54-3.257-1.503
			c0-1.877,2.066-3.573,3.266-4.373l57.438-38.292c2.51-1.674,4.562-5.509,4.562-8.524V3.226C66.896,0.21,64.843-0.886,62.333,0.788
			z M44.767,71.676L22.462,86.674V56.939l22.305-15L33.613,64.306L44.767,71.676z"/>
	</g>
	<linearGradient id="SVGID_4_" gradientUnits="userSpaceOnUse" x1="55.8867" y1="133.6943" x2="55.8867" y2="25.8735">
		<stop  offset="0" style="stop-color:#A42714"/>
		<stop  offset="0.2339" style="stop-color:#BE371A"/>
		<stop  offset="0.5295" style="stop-color:#D8471F"/>
		<stop  offset="0.7942" style="stop-color:#E85123"/>
		<stop  offset="1" style="stop-color:#EE5424"/>
	</linearGradient>
	<path fill="url(#SVGID_4_)" d="M100.175,25.873v75.483c0,7.194-2.282,7.823-4.56,8.526l0,0L4.94,133.694l97.763-19.737
		c3.681-0.691,4.13-4.133,4.13-4.133V30.311L100.175,25.873z"/>
	<path opacity="0.2" fill="#231F20" d="M100.175,101.312V26.378l-2.35-1.489c0,0,3.924-2.617,4.35-2.898
		c1.172-0.781,1.466,2.921,1.466,3.119c0,16.678-0.371,79.208-0.371,79.208s0.249,6.396-7.739,8.408
		c-7.758,1.951-88.215,20.371-88.215,20.371l88.197-23.258c0,0,2.495-0.441,3.743-2.643
		C100.17,105.59,100.175,101.312,100.175,101.312z"/>
	<path fill="#E6D7D5" d="M93.519,97.172V22.237l-6.654-4.438v75.289c0,6.383-4.562,8.523-4.563,8.524L2.148,133.313l86.806-27.618
		C88.96,105.694,93.519,104.383,93.519,97.172z"/>
	<path fill="#E6D7D5" d="M80.206,88.959v-75.16l-6.654-4.439v75.64c0,5.902-4.566,8.524-4.566,8.524l0,0l-67.222,38.19
		l73.882-34.229C75.646,97.484,80.206,95.072,80.206,88.959z"/>
	<linearGradient id="SVGID_5_" gradientUnits="userSpaceOnUse" x1="98.6685" y1="115.1777" x2="3.8286" y2="106.8803">
		<stop  offset="0" style="stop-color:#BCBDC0"/>
		<stop  offset="0.1379" style="stop-color:#B8B9BC"/>
		<stop  offset="0.2824" style="stop-color:#ACACAF"/>
		<stop  offset="0.4299" style="stop-color:#97989A"/>
		<stop  offset="0.5796" style="stop-color:#7A7B7D"/>
		<stop  offset="0.7309" style="stop-color:#555657"/>
		<stop  offset="0.8814" style="stop-color:#292929"/>
		<stop  offset="1" style="stop-color:#000000"/>
	</linearGradient>
	<path opacity="0.6" fill="url(#SVGID_5_)" d="M61.788,89.885c1.62-1.075,2.672-2.039,3.994-4.539c0,0,11.688,4.229,18.982,8.984
		c9.044,5.895,15.65,10.826,14.518,12.835c-1.12,1.989-2.607,2.343-2.607,2.343L4.886,133.704c0,0-1.354,0.304-2.336-0.1
		c-0.991-0.405-0.924-1.388-0.924-1.388s-0.074-0.946,0.776-2.117c0.992-1.361,2.408-2.215,2.408-2.215S49.595,97.988,61.788,89.885
		z"/>
	<path opacity="0.3" fill="#231F20" d="M66.569,1.422c-0.678-1.931-2.994-0.787-2.994-0.787s1.127-0.137,1.127,1.15
		c0,1.74,0,78.676,0,78.676s0,4.422-4.557,7.64c-4.037,2.85-46.134,31.13-56.118,38.082c-2.676,1.866-3.697,3.662-3.697,4.556
		c0,0.891-0.104,3.423,3.288,3.166c0,0-1.354-0.096-1.792-0.905c-0.625-1.153,0.122-3.189,3.052-5.171
		C10.375,124.11,57.19,92.965,62.085,89.7c3.078-2.054,4.953-6.077,4.811-9.146c-0.337-7.098-0.027-58.48-0.027-77.896
		C66.868,2.49,66.774,2.003,66.569,1.422z"/>
	<g opacity="0.3">
		<g>
			<polygon fill="#FFFFFF" points="22.462,86.674 22.494,87.713 44.9,72.907 44.767,71.676 			"/>
		</g>
	</g>
	<polygon opacity="0.3" fill="#FFFFFF" points="44.767,41.939 44.789,43.949 34.659,64.994 33.613,64.306 	"/>
	<path opacity="0.3" fill="#FFFFFF" d="M64.124,0.714c-0.84-0.224-1.531,0.08-1.67,0.15l-0.673,0.29L12.93,33.72
		c0,0,7.614,10.321,22.403,19.394c15.647,9.599,29.369,12.011,29.369,12.011V1.785C64.702,1.785,64.719,0.876,64.124,0.714z"/>
	<path opacity="0.2" d="M66.458,83.634c0,0-0.812,2.313-1.916,3.719c-1.127,1.439-1.928,1.964-2.449,2.314
		c-8.524,5.716-57.198,38.161-57.198,38.161s41.881-25.675,58.313-35.922c2.522-1.572,3.25-5.2,3.25-7.047
		C66.458,84.553,66.458,83.634,66.458,83.634z"/>
	<path opacity="0.1" d="M73.552,9.359c0,0-0.562,54.738,0,72.521c0.131,4.162,0.309,8.832-5.062,11.928
		c-13.338,7.682-66.591,37.833-66.591,37.833s50.734-27.044,67.128-36.54c3.659-2.121,6.285-4.361,6.032-13.42
		C74.778,71.634,73.552,9.359,73.552,9.359z"/>
	<path opacity="0.1" d="M86.864,18.754c0,0,0,55.127,0,71.574c0,3.229,0.588,9.221-5.574,11.66
		c-6.324,2.501-79.139,31.381-79.139,31.381s59.989-22.536,79.139-29.747c3.57-1.344,7.413-3.144,7.413-13.322
		C88.703,78.344,86.864,18.754,86.864,18.754z"/>
	<g>
		<linearGradient id="SVGID_6_" gradientUnits="userSpaceOnUse" x1="33.6143" y1="86.6738" x2="33.6143" y2="41.9395">
			<stop  offset="0" style="stop-color:#8D310F"/>
			<stop  offset="0.2493" style="stop-color:#88300F"/>
			<stop  offset="0.5541" style="stop-color:#792D11"/>
			<stop  offset="0.8865" style="stop-color:#602813"/>
			<stop  offset="1" style="stop-color:#562614"/>
		</linearGradient>
		<polygon fill="url(#SVGID_6_)" points="33.613,64.306 44.767,41.939 22.462,56.939 22.462,86.674 44.767,71.676 		"/>
	</g>
	<defs>
		<filter id="Adobe_OpacityMaskFilter" filterUnits="userSpaceOnUse" x="22.462" y="41.939" width="22.305" height="44.734">
			
				<feColorMatrix  type="matrix" values="-1 0 0 0 1  0 -1 0 0 1  0 0 -1 0 1  0 0 0 1 0" color-interpolation-filters="sRGB" result="source"/>
		</filter>
	</defs>
	<mask maskUnits="userSpaceOnUse" x="22.462" y="41.939" width="22.305" height="44.734" id="SVGID_7_">
		<g filter="url(#Adobe_OpacityMaskFilter)">
			
				<image overflow="visible" width="59" height="112" xlink:href="B94EFAE1.jpg"  transform="matrix(0.4161 0 0 0.4161 21.2852 41.063)">
			</image>
		</g>
	</mask>
	<g opacity="0.15" mask="url(#SVGID_7_)">
		<polygon fill="#070707" points="33.613,64.306 44.767,41.939 22.462,56.939 22.462,86.674 44.767,71.676 		"/>
	</g>
	<path fill="#FF9971" d="M0.933,44.491c1.766-2.481,3.694-4.093,4.092-4.365C16.616,32.227,61.822,1.812,63.632,0.638
		c0.816-0.529,2.26-0.164,2.26-0.164s-1.34-1.108-3.151,0.065C57.688,3.809,18.966,29.544,4.895,39.077
		c-1.41,0.954-2.596,2.467-3.178,3.681L0.933,44.491z"/>
	<path opacity="0.3" fill="#FFFFFF" d="M0.425,130.209c0.963-2.33,3.207-3.754,3.602-4.026
		c11.595-7.896,54.733-37.128,56.518-38.377c0.649-0.455,2.228-2.245,2.228-2.245c-5.053,3.271-44.139,29.209-58.208,38.742
		c-1.409,0.953-2.67,2.26-3.36,3.682C0.945,128.513,0.425,130.209,0.425,130.209z"/>
	<path opacity="0.3" fill="#FFFFFF" d="M103.536,27.349c0,10.955-0.268,77.188-0.268,77.188s1.025-57.692,1.025-77.236
		c0-7.238-2.136-5.3-2.136-5.3S103.536,20.942,103.536,27.349z"/>
</g>
</svg>
