<?xml version="1.0" encoding="utf-8"?>
<!-- Generator: Adobe Illustrator 15.0.0, SVG Export Plug-In . SVG Version: 6.00 Build 0)  -->
<!DOCTYPE svg PUBLIC "-//W3C//DTD SVG 1.1//EN" "http://www.w3.org/Graphics/SVG/1.1/DTD/svg11.dtd">
<svg version="1.1" id="Layer_1" xmlns="http://www.w3.org/2000/svg" xmlns:xlink="http://www.w3.org/1999/xlink" x="0px" y="0px"
	 width="31px" height="26px" viewBox="0 0 31 26" enable-background="new 0 0 31 26" xml:space="preserve">
<g>
	<g>
		<path fill="#B9B8BD" d="M30.029,2.888c-1.105,0.489-2.293,0.82-3.539,0.971c1.271-0.764,2.25-1.971,2.709-3.409
			c-1.189,0.705-2.508,1.219-3.912,1.495C24.164,0.747,22.562,0,20.791,0c-3.402,0-6.162,2.757-6.162,6.16
			c0,0.482,0.055,0.953,0.16,1.403C9.67,7.307,5.131,4.854,2.092,1.126C1.562,2.036,1.258,3.094,1.258,4.224
			c0,2.136,1.086,4.023,2.74,5.128c-1.01-0.034-1.959-0.31-2.791-0.772c0,0.025,0,0.052,0,0.079c0,2.984,2.123,5.474,4.941,6.039
			c-0.516,0.143-1.061,0.218-1.623,0.218c-0.396,0-0.781-0.04-1.158-0.11c0.783,2.446,3.059,4.228,5.754,4.277
			c-2.107,1.651-4.764,2.638-7.65,2.638c-0.498,0-0.986-0.03-1.471-0.085c2.729,1.746,5.967,2.768,9.445,2.768
			c11.33,0,17.527-9.389,17.527-17.53c0-0.266-0.006-0.533-0.018-0.797C28.158,5.208,29.201,4.124,30.029,2.888z"/>
	</g>
</g>
</svg>
